<mxfile host="Electron" modified="2023-06-07T17:47:45.295Z" agent="Mozilla/5.0 (X11; Linux x86_64) AppleWebKit/537.36 (KHTML, like Gecko) draw.io/21.2.8 Chrome/112.0.5615.165 Electron/24.2.0 Safari/537.36" etag="du3niFBN-pM6HK_kAAh7" version="21.2.8" type="device">
  <diagram name="Page-1" id="lxIO3lDZORwEamxNMwAn">
    <mxGraphModel dx="2948" dy="1732" grid="1" gridSize="10" guides="1" tooltips="1" connect="1" arrows="1" fold="1" page="1" pageScale="1" pageWidth="850" pageHeight="1100" math="0" shadow="0">
      <root>
        <mxCell id="0" />
        <mxCell id="1" parent="0" />
        <mxCell id="iWiImNtMInY5p8_KbfMM-6" style="edgeStyle=none;rounded=0;orthogonalLoop=1;jettySize=auto;html=1;exitX=0.5;exitY=1;exitDx=0;exitDy=0;entryX=0.5;entryY=0;entryDx=0;entryDy=0;" edge="1" parent="1" source="iWiImNtMInY5p8_KbfMM-1" target="iWiImNtMInY5p8_KbfMM-2">
          <mxGeometry relative="1" as="geometry" />
        </mxCell>
        <mxCell id="iWiImNtMInY5p8_KbfMM-7" style="edgeStyle=none;rounded=0;orthogonalLoop=1;jettySize=auto;html=1;exitX=0.5;exitY=1;exitDx=0;exitDy=0;entryX=0.5;entryY=0;entryDx=0;entryDy=0;" edge="1" parent="1" source="iWiImNtMInY5p8_KbfMM-1" target="iWiImNtMInY5p8_KbfMM-3">
          <mxGeometry relative="1" as="geometry" />
        </mxCell>
        <mxCell id="iWiImNtMInY5p8_KbfMM-8" style="edgeStyle=none;rounded=0;orthogonalLoop=1;jettySize=auto;html=1;exitX=0.5;exitY=1;exitDx=0;exitDy=0;entryX=0.5;entryY=0;entryDx=0;entryDy=0;" edge="1" parent="1" source="iWiImNtMInY5p8_KbfMM-1" target="iWiImNtMInY5p8_KbfMM-4">
          <mxGeometry relative="1" as="geometry" />
        </mxCell>
        <mxCell id="iWiImNtMInY5p8_KbfMM-1" value="REST Service" style="shape=image;verticalLabelPosition=bottom;labelBackgroundColor=default;verticalAlign=top;aspect=fixed;imageAspect=0;image=data:image/svg+xml,PHN2ZyB4bWxucz0iaHR0cDovL3d3dy53My5vcmcvMjAwMC9zdmciIGNsYXNzPSJzdmctaWNvbiIgc3R5bGU9IndpZHRoOiAxZW07IGhlaWdodDogMWVtO3ZlcnRpY2FsLWFsaWduOiBtaWRkbGU7ZmlsbDogY3VycmVudENvbG9yO292ZXJmbG93OiBoaWRkZW47IiB2aWV3Qm94PSIwIDAgMTAyNCAxMDI0IiB2ZXJzaW9uPSIxLjEiPjxwYXRoIGQ9Ik0zNTcuOTkwNCA4NTguMTEyaC0yMDQuOGMtNS43MzQ0IDAtMTAuMjQtMy42ODY0LTEwLjI0LTYuOTYzMlYxNzIuODUxMmMwLTMuMjc2OCA0LjUwNTYtNi45NjMyIDEwLjI0LTYuOTYzMmg1MzIuNDhjNS43MzQ0IDAgMTAuMjQgMy42ODY0IDEwLjI0IDYuOTYzMnYxMjkuNDMzNmMwIDE2Ljc5MzYgMTMuOTI2NCAzMC43MiAzMC43MiAzMC43MnMzMC43Mi0xMy45MjY0IDMwLjcyLTMwLjcyVjE3Mi44NTEyYzAtMzcuNjgzMi0zMi4zNTg0LTY4LjQwMzItNzEuNjgtNjguNDAzMmgtNTMyLjQ4Yy0zOS4zMjE2IDAtNzEuNjggMzAuNzItNzEuNjggNjguNDAzMnY2NzguMjk3NmMwIDM3LjY4MzIgMzIuMzU4NCA2OC40MDMyIDcxLjY4IDY4LjQwMzJoMjA0LjhjMTYuNzkzNiAwIDMwLjcyLTEzLjkyNjQgMzAuNzItMzAuNzJzLTEzLjkyNjQtMzAuNzItMzAuNzItMzAuNzJ6IiBmaWxsPSIjMjMxODE1Ii8+PHBhdGggZD0iTTI3Ni4wNzA0IDI5Mi44NjRjLTE2Ljc5MzYgMC0zMC43MiAxMy45MjY0LTMwLjcyIDMwLjcyczEzLjkyNjQgMzAuNzIgMzAuNzIgMzAuNzJoMjQ1Ljc2YzE2Ljc5MzYgMCAzMC43Mi0xMy45MjY0IDMwLjcyLTMwLjcycy0xMy45MjY0LTMwLjcyLTMwLjcyLTMwLjcyaC0yNDUuNzZ6TTY2Ni4wMDk2IDM2Ni41OTJjLTE1Mi4zNzEyIDAtMjc2LjQ4IDEyNC4xMDg4LTI3Ni40OCAyNzYuNDhzMTI0LjEwODggMjc2LjQ4IDI3Ni40OCAyNzYuNDggMjc2LjQ4LTEyNC4xMDg4IDI3Ni40OC0yNzYuNDgtMTIzLjY5OTItMjc2LjQ4LTI3Ni40OC0yNzYuNDh6IG0xNjMuNDMwNCAzMTIuMTE1MmMtNi45NjMyIDIuNDU3Ni0xNC4zMzYgNC45MTUyLTIxLjcwODggNi45NjMyIDAuODE5Mi0xMy45MjY0IDEuNjM4NC0yNy44NTI4IDEuNjM4NC00Mi41OTg0cy0wLjQwOTYtMjguNjcyLTEuNjM4NC00Mi41OTg0YzcuNzgyNCAyLjA0OCAxNC43NDU2IDQuNTA1NiAyMS43MDg4IDYuOTYzMiAzOS4zMjE2IDE0LjMzNiA1Mi4wMTkyIDI5LjkwMDggNTIuMDE5MiAzNS4yMjU2LTAuNDA5NiA1LjczNDQtMTMuMTA3MiAyMS4yOTkyLTUyLjAxOTIgMzYuMDQ0OHogbS0xNjMuNDMwNCAxNzkuNDA0OGMtMjEuNzA4OCAwLTQ5LjU2MTYtMzUuNjM1Mi02Ni43NjQ4LTk2LjY2NTYgMjEuNzA4OCAyLjA0OCA0NC4yMzY4IDMuMjc2OCA2Ni43NjQ4IDMuMjc2OHM0NC42NDY0LTEuMjI4OCA2Ni43NjQ4LTMuMjc2OGMtMTYuNzkzNiA2MS4wMzA0LTQ1LjA1NiA5Ni42NjU2LTY2Ljc2NDggOTYuNjY1NnogbTAtMTU0LjgyODhjLTI3LjQ0MzIgMC01My42NTc2LTEuNjM4NC03OC42NDMyLTQuOTE1Mi0yLjA0OC0xNy4yMDMyLTIuODY3Mi0zNS42MzUyLTIuODY3Mi01NS4yOTZzMS4yMjg4LTM3LjY4MzIgMi44NjcyLTU1LjI5NmMyNC41NzYtMy4yNzY4IDUxLjItNC45MTUyIDc4LjY0MzItNC45MTUyIDI3LjQ0MzIgMCA1My42NTc2IDEuNjM4NCA3OC42NDMyIDQuOTE1MiAyLjA0OCAxNy4yMDMyIDIuODY3MiAzNS42MzUyIDIuODY3MiA1NS4yOTZzLTEuMjI4OCAzNy42ODMyLTIuODY3MiA1NS4yOTZjLTI0LjU3NiAzLjI3NjgtNTEuMiA0LjkxNTItNzguNjQzMiA0LjkxNTJ6TTQ1MS4zNzkyIDY0My4wNzJjMC01LjMyNDggMTIuNjk3Ni0yMC44ODk2IDUyLjAxOTItMzUuMjI1NiA2Ljk2MzItMi40NTc2IDE0LjMzNi00LjkxNTIgMjEuNzA4OC02Ljk2MzItMC44MTkyIDEzLjkyNjQtMS42Mzg0IDI3Ljg1MjgtMS42Mzg0IDQyLjU5ODRzMC40MDk2IDI4LjY3MiAxLjYzODQgNDIuNTk4NGMtNy43ODI0LTIuMDQ4LTE0Ljc0NTYtNC41MDU2LTIxLjcwODgtNi45NjMyLTM5LjMyMTYtMTUuMTU1Mi01Mi4wMTkyLTMwLjcyLTUyLjAxOTItMzYuMDQ0OHogbTIxNC42MzA0LTIxNS4wNGMyMS43MDg4IDAgNDkuNTYxNiAzNS42MzUyIDY2Ljc2NDggOTYuNjY1Ni0yMS43MDg4LTIuMDQ4LTQ0LjIzNjgtMy4yNzY4LTY2Ljc2NDgtMy4yNzY4cy00NC42NDY0IDEuMjI4OC02Ni43NjQ4IDMuMjc2OGMxNy4yMDMyLTYxLjAzMDQgNDUuNDY1Ni05Ni42NjU2IDY2Ljc2NDgtOTYuNjY1NnogbTE5Ni4xOTg0IDEyNi45NzZjLTE4Ljg0MTYtOC4xOTItNDAuNTUwNC0xNC43NDU2LTYzLjQ4OC0xOS42NjA4LTYuMTQ0LTI5LjA4MTYtMTQuMzM2LTU1LjcwNTYtMjQuOTg1Ni03OC4yMzM2IDM4LjkxMiAyMi41MjggNzAuMDQxNiA1Ni45MzQ0IDg4LjQ3MzYgOTcuODk0NHogbS0zMDMuNTEzNi05Ny44OTQ0Yy0xMC42NDk2IDIyLjkzNzYtMTguODQxNiA0OS4xNTItMjQuOTg1NiA3OC4yMzM2LTIyLjkzNzYgNS4zMjQ4LTQ0LjY0NjQgMTEuODc4NC02My40ODggMTkuNjYwOCAxOC40MzItNDAuOTYgNDkuNTYxNi03NS4zNjY0IDg4LjQ3MzYtOTcuODk0NHogbS04OC40NzM2IDI3NC4wMjI0YzE4Ljg0MTYgOC4xOTIgNDAuNTUwNCAxNC43NDU2IDYzLjQ4OCAxOS42NjA4IDYuMTQ0IDI5LjA4MTYgMTQuMzM2IDU1LjcwNTYgMjQuOTg1NiA3OC4yMzM2LTM4LjkxMi0yMi4xMTg0LTcwLjA0MTYtNTYuNTI0OC04OC40NzM2LTk3Ljg5NDR6IG0zMDMuNTEzNiA5Ny44OTQ0YzEwLjY0OTYtMjIuOTM3NiAxOC44NDE2LTQ5LjE1MiAyNC45ODU2LTc4LjIzMzYgMjIuOTM3Ni01LjMyNDggNDQuNjQ2NC0xMS44Nzg0IDYzLjQ4OC0xOS42NjA4LTE4LjQzMiA0MS4zNjk2LTQ5LjU2MTYgNzUuNzc2LTg4LjQ3MzYgOTcuODk0NHoiIGZpbGw9IiMyMzE4MTUiLz48L3N2Zz4=;fontSize=24;" vertex="1" parent="1">
          <mxGeometry x="270" width="310" height="310" as="geometry" />
        </mxCell>
        <mxCell id="iWiImNtMInY5p8_KbfMM-2" value="Cache DB" style="shape=image;verticalLabelPosition=bottom;labelBackgroundColor=default;verticalAlign=top;aspect=fixed;imageAspect=0;image=data:image/svg+xml,PHN2ZyB4bWxucz0iaHR0cDovL3d3dy53My5vcmcvMjAwMC9zdmciIHZpZXdCb3g9IjAgMCAxMjAgMTM1IiBkYXRhLW5hbWU9IkxheWVyIDEiIGlkPSJMYXllcl8xIj48ZGVmcz48c3R5bGU+LmNscy0xe2ZpbGw6IzMwNjA5Mjt9LmNscy0ye2ZpbGw6I2ZmZjt9PC9zdHlsZT48L2RlZnM+PHRpdGxlPjAxX0lOU1RBTkFfSWNvblNldDwvdGl0bGU+PHBhdGggZD0iTTUyLDQuNjQsOS41NiwyOS4xNUExNiwxNiwwLDAsMCwxLjU3LDQzVjkyYTE2LDE2LDAsMCwwLDgsMTMuODRMNTIsMTMwLjM2YTE2LDE2LDAsMCwwLDE2LDBsNDIuNDUtMjQuNTFhMTYsMTYsMCwwLDAsOC0xMy44NFY0M2ExNiwxNiwwLDAsMC04LTEzLjg0TDY4LDQuNjRBMTYsMTYsMCwwLDAsNTIsNC42NFoiIGNsYXNzPSJjbHMtMSIvPjxwYXRoIGQ9Ik02Mi4zNCw5OS41NGwyLjIyLDIuMDlDNjYuNzEsOTkuNTQsNzQsOTMsNzgsODNhNDUuNDgsNDUuNDgsMCwwLDEtNy41MS0zLjkxQzcwLjU4LDgzLjQyLDY3LjYzLDkyLjE3LDYyLjM0LDk5LjU0WiIgY2xhc3M9ImNscy0yIi8+PHBhdGggZD0iTTkxLjQ3LDc4LjY1czAsMCwwLDAtLjQtLjA4LS43NCwwYy0zLjMuMzctMTAuOS0xLjE3LTEwLjg1LTEuNzMsMS4yNC0xMi40Mi01LjMtMjcuNy01LjMtMjcuN3MtOC45LTYtMTYuNjItNC40NGEyNS45MywyNS45MywwLDAsMC0xNC43Ni0zcy0xOCwyLTE0LjEyLDEzLjc3Yy4yMy42MywyLjcsOS4zOSw0LjY1LDExLjc1UzQzLjMzLDcwLjQ5LDQ4LDg2LjI3YTEuMTQsMS4xNCwwLDAsMCwyLjEzLjEzYzEuODQtNC4yNyw0LjU3LTkuODIsNS40NS0xNi41YTEyMy43MywxMjMuNzMsMCwwLDAsLjQ1LTEyLjUzLjU0LjU0LDAsMCwxLDEuMDYtLjExLDQ0LjM2LDQ0LjM2LDAsMCwxLC45NSwxMy4zNmMyLDEuNzksNS4xOCw0LjMsNyw0LjQ1bC43NC0xYTU4LjY3LDU4LjY3LDAsMCwwLDUuNSwzLjI1aDBhMjUuNTUsMjUuNTUsMCwwLDAsNy4zNSwyLjc4Qzg2LjUsODEuNjMsOTEuMzYsNzksOTEuMzYsNzlBLjI4LjI4LDAsMCwwLDkxLjQ3LDc4LjY1WiIgY2xhc3M9ImNscy0yIi8+PC9zdmc+;fontSize=24;" vertex="1" parent="1">
          <mxGeometry x="60" y="460" width="231.11" height="260" as="geometry" />
        </mxCell>
        <mxCell id="iWiImNtMInY5p8_KbfMM-3" value="Project DB 1" style="shape=image;verticalLabelPosition=bottom;labelBackgroundColor=default;verticalAlign=top;aspect=fixed;imageAspect=0;image=data:image/svg+xml,PHN2ZyB4bWxucz0iaHR0cDovL3d3dy53My5vcmcvMjAwMC9zdmciIHZpZXdCb3g9IjAgMCAxMjAgMTM1IiBkYXRhLW5hbWU9IkxheWVyIDEiIGlkPSJMYXllcl8xIj48ZGVmcz48c3R5bGU+LmNscy0xe2ZpbGw6I2U3MzEzNTt9LmNscy0ye2ZpbGw6I2ZmZjt9PC9zdHlsZT48L2RlZnM+PHRpdGxlPjAxX0lOU1RBTkFfSWNvblNldDwvdGl0bGU+PHBhdGggZD0iTTUyLDQuNjQsOS41NiwyOS4xNUExNiwxNiwwLDAsMCwxLjU3LDQzVjkyYTE2LDE2LDAsMCwwLDgsMTMuODRMNTIsMTMwLjM2YTE2LDE2LDAsMCwwLDE2LDBsNDIuNDUtMjQuNTFhMTYsMTYsMCwwLDAsOC0xMy44NFY0M2ExNiwxNiwwLDAsMC04LTEzLjg0TDY4LDQuNjRBMTYsMTYsMCwwLDAsNTIsNC42NFoiIGNsYXNzPSJjbHMtMSIvPjxwYXRoIGQ9Ik00My4wOSw2Ny41M3YtLjJoMGExLjgsMS44LDAsMCwwLTEuODEtMS42MUgzNy44NGEyLjQ1LDIuNDUsMCwwLDAtLjM4LDBBMS43OSwxLjc5LDAsMCwwLDM2LDY3LjU1di4yYTEuNzksMS43OSwwLDAsMCwxLjc4LDEuNTZoMy40N2ExLjM3LDEuMzcsMCwwLDAsLjM0LDBBMS43NywxLjc3LDAsMCwwLDQzLjA5LDY3LjUzWiIgY2xhc3M9ImNscy0yIi8+PHBhdGggZD0iTTg4Ljg3LDc5SDMxLjA5VjkxLjMzYS44OS44OSwwLDAsMCwuODkuODlIODhhLjg5Ljg5LDAsMCwwLC44OS0uODlabS00LjE4LDcuMzZhLjY0LjY0LDAsMCwxLS42NC42NEg3NS41NmEuNjMuNjMsMCwwLDEtLjYzLS42NFY4NC42M2gwYS42NC42NCwwLDAsMSwuNTktLjRoOC40OGEuNjQuNjQsMCwwLDEsLjY0LjY0WiIgY2xhc3M9ImNscy0yIi8+PHBhdGggZD0iTTg4LDQyLjc4SDMyYS44OS44OSwwLDAsMC0uODkuODlWNTZoNTcuOFY0My42OEEuOTIuOTIsMCwwLDAsODgsNDIuNzhabS0zLjMxLDcuMzVhLjY0LjY0LDAsMCwxLS42NC42NEg3NS41N2EuNjQuNjQsMCwwLDEtLjY0LS42NFY0OC42NmEuNjQuNjQsMCwwLDEsLjY0LS42NGg4LjQ4YS42NC42NCwwLDAsMSwuNjQuNjRaIiBjbGFzcz0iY2xzLTIiLz48cGF0aCBkPSJNNTYuNzYsNjguMThoMi40OWwtMS4yMy0yWk0zMS4wOSw2MC40OXYxNGg1Ny44di0xNFpNNDIuNTUsNzAuNzRhMy43LDMuNywwLDAsMS0uNjYuMDdIMzguMzZhMy4zLDMuMywwLDAsMS0zLjI2LTIuNzJoMGEzLDMsMCwwLDEsMC0uNTIsMy4zNCwzLjM0LDAsMCwxLDIuNy0zLjI3aDBhNS44LDUuOCwwLDAsMSwuNjUtLjA3SDQyYTMuMjksMy4yOSwwLDAsMSwzLjE5LDIuODhjMCwuMTQsMCwuMjcsMCwuNEEzLjMsMy4zLDAsMCwxLDQyLjU1LDcwLjc0Wm0xOC41LjA2LS4wNiwwLS4xNS0uMTEsMCwwYy0uMTctLjI3LS4zNC0uNTYtLjUyLS44NGwtLjA3LDBINTcuNGwtLjI2LS4wN0w1Nyw2OS40OGgwYy0uMTgtLjI3LS4zNC0uNTQtLjUxLS43OWgwbC0xLjE5LDEuOWgwbC0uMTYuMTYtLjI0LDBINTMuNTRsMCwwSDUxLjNsMCwwLS4xOS0uMDcsMCwwLTMuMzgtMi45NSwwLDB2MGwtLjItLjI4VjcwLjhINDUuNzh2LS4yNGMwLTIsMC00LDAtNi4wOHYtLjI0aDUuMzFBMi4yOSwyLjI5LDAsMCwxLDUzLjM1LDY2YTIuNDgsMi40OCwwLDAsMSwuMDYuNTQsMi4zLDIuMywwLDAsMS0yLjE5LDIuMjhsLjY4LjU3aDBsMS4xOCwxLC4yLjE4LjE1LS4xOC4wOC0uMWMxLjE5LTEuODYsMi4zOC0zLjcsMy41NS01LjU4YTEuMTUsMS4xNSwwLDAsMSwxLjk1LDBjMS4xNiwxLjg3LDIuMzcsMy43MSwzLjU1LDUuNTdsLjMyLjUxWm04Ljc2LTEuMTZjLS4yMi4zNi0uNDQuNjktLjY3LDFsMCwuMDYtLjA3LDAtLjE1LjA2SDY1LjE2QTMuMjQsMy4yNCwwLDAsMSw2Miw2Ny44OGMwLS4xMSwwLS4yMiwwLS4zM2EzLjMxLDMuMzEsMCwwLDEsMi43Ny0zLjI4aDBhMy4yNiwzLjI2LDAsMCwxLC41MiwwaDQuNjFsLS4yMy4zNy0uMDcuMTFoMGMtLjE4LjI3LS4zNS41My0uNS44aDBhLjUuNSwwLDAsMS0uMjEuMjIuNjIuNjIsMCwwLDEtLjI1LjA1SDY1LjQxYTEuNzMsMS43MywwLDAsMC0xLjc2LDEuNzd2MGgwYTEuNzIsMS43MiwwLDAsMCwxLjQ5LDEuNjVoMGwuMzIsMGg0LjU4Wm0xNSwwLS4wNi4wOWgwYy0uMTguMy0uMzguNi0uNTYuODlsMCwuMDUsMCwwLS4yLjEySDgwLjIzYTMuMjMsMy4yMywwLDAsMS0yLjY1LTEuNTJsLS4xOC4zLS4wNy4xMmgwbC0uNTYuODYsMCwwLDAsMC0uMjMuMTNINzEuMmEuOTMuOTMsMCwwLDEtLjY0LS4yNC44OS44OSwwLDAsMS0uMjQtLjY0VjY0LjU3aDBsMC0uMTIsMC0uMkg3MnY1aDUuNTdhMy4yNCwzLjI0LDAsMCwxLS40Ni0xLjM0aDBhMi40NCwyLjQ0LDAsMCwxLDAtLjI3LDMuMzYsMy4zNiwwLDAsMSwyLjgtMy4zNmwwLC4yNCwwLS4yNGEzLjA5LDMuMDksMCwwLDEsLjUxLDBIODVsLS4xOS4zNi0uMDYuMTJoMGMtLjE4LjI5LS4zNi41Ny0uNTUuODVoMGwtLjE1LjE3LS4yNC4wNUg4MC40M2ExLjY5LDEuNjksMCwwLDAtMS41MiwxaDUuNzJsLS4xOS4zNi0uMDcuMTJoMGwtLjU1Ljg2aDBsLS4xNi4xOC0uMjMsMEg3OC44N2wuMDYuMWExLjY5LDEuNjksMCwwLDAsMS41Ljg2aDQuNjRaTTUxLjc0LDY2LjgyYS43NC43NCwwLDAsMCwwLS4yOS43Ni43NiwwLDAsMC0uNzMtLjc1SDQ3LjQxdjEuNDloLjUxbDMsMEEuNzkuNzksMCwwLDAsNTEuNzQsNjYuODJaIiBjbGFzcz0iY2xzLTIiLz48L3N2Zz4=;fontSize=24;" vertex="1" parent="1">
          <mxGeometry x="309" y="460" width="231.11" height="260" as="geometry" />
        </mxCell>
        <mxCell id="iWiImNtMInY5p8_KbfMM-4" value="Project DB 2" style="shape=image;verticalLabelPosition=bottom;labelBackgroundColor=default;verticalAlign=top;aspect=fixed;imageAspect=0;image=data:image/svg+xml,PHN2ZyB4bWxucz0iaHR0cDovL3d3dy53My5vcmcvMjAwMC9zdmciIHZpZXdCb3g9IjAgMCAxMjAgMTM1IiBkYXRhLW5hbWU9IkxheWVyIDEiIGlkPSJMYXllcl8xIj48ZGVmcz48c3R5bGU+LmNscy0xe2ZpbGw6I2U3MzEzNTt9LmNscy0ye2ZpbGw6I2ZmZjt9PC9zdHlsZT48L2RlZnM+PHRpdGxlPjAxX0lOU1RBTkFfSWNvblNldDwvdGl0bGU+PHBhdGggZD0iTTUyLDQuNjQsOS41NiwyOS4xNUExNiwxNiwwLDAsMCwxLjU3LDQzVjkyYTE2LDE2LDAsMCwwLDgsMTMuODRMNTIsMTMwLjM2YTE2LDE2LDAsMCwwLDE2LDBsNDIuNDUtMjQuNTFhMTYsMTYsMCwwLDAsOC0xMy44NFY0M2ExNiwxNiwwLDAsMC04LTEzLjg0TDY4LDQuNjRBMTYsMTYsMCwwLDAsNTIsNC42NFoiIGNsYXNzPSJjbHMtMSIvPjxwYXRoIGQ9Ik00My4wOSw2Ny41M3YtLjJoMGExLjgsMS44LDAsMCwwLTEuODEtMS42MUgzNy44NGEyLjQ1LDIuNDUsMCwwLDAtLjM4LDBBMS43OSwxLjc5LDAsMCwwLDM2LDY3LjU1di4yYTEuNzksMS43OSwwLDAsMCwxLjc4LDEuNTZoMy40N2ExLjM3LDEuMzcsMCwwLDAsLjM0LDBBMS43NywxLjc3LDAsMCwwLDQzLjA5LDY3LjUzWiIgY2xhc3M9ImNscy0yIi8+PHBhdGggZD0iTTg4Ljg3LDc5SDMxLjA5VjkxLjMzYS44OS44OSwwLDAsMCwuODkuODlIODhhLjg5Ljg5LDAsMCwwLC44OS0uODlabS00LjE4LDcuMzZhLjY0LjY0LDAsMCwxLS42NC42NEg3NS41NmEuNjMuNjMsMCwwLDEtLjYzLS42NFY4NC42M2gwYS42NC42NCwwLDAsMSwuNTktLjRoOC40OGEuNjQuNjQsMCwwLDEsLjY0LjY0WiIgY2xhc3M9ImNscy0yIi8+PHBhdGggZD0iTTg4LDQyLjc4SDMyYS44OS44OSwwLDAsMC0uODkuODlWNTZoNTcuOFY0My42OEEuOTIuOTIsMCwwLDAsODgsNDIuNzhabS0zLjMxLDcuMzVhLjY0LjY0LDAsMCwxLS42NC42NEg3NS41N2EuNjQuNjQsMCwwLDEtLjY0LS42NFY0OC42NmEuNjQuNjQsMCwwLDEsLjY0LS42NGg4LjQ4YS42NC42NCwwLDAsMSwuNjQuNjRaIiBjbGFzcz0iY2xzLTIiLz48cGF0aCBkPSJNNTYuNzYsNjguMThoMi40OWwtMS4yMy0yWk0zMS4wOSw2MC40OXYxNGg1Ny44di0xNFpNNDIuNTUsNzAuNzRhMy43LDMuNywwLDAsMS0uNjYuMDdIMzguMzZhMy4zLDMuMywwLDAsMS0zLjI2LTIuNzJoMGEzLDMsMCwwLDEsMC0uNTIsMy4zNCwzLjM0LDAsMCwxLDIuNy0zLjI3aDBhNS44LDUuOCwwLDAsMSwuNjUtLjA3SDQyYTMuMjksMy4yOSwwLDAsMSwzLjE5LDIuODhjMCwuMTQsMCwuMjcsMCwuNEEzLjMsMy4zLDAsMCwxLDQyLjU1LDcwLjc0Wm0xOC41LjA2LS4wNiwwLS4xNS0uMTEsMCwwYy0uMTctLjI3LS4zNC0uNTYtLjUyLS44NGwtLjA3LDBINTcuNGwtLjI2LS4wN0w1Nyw2OS40OGgwYy0uMTgtLjI3LS4zNC0uNTQtLjUxLS43OWgwbC0xLjE5LDEuOWgwbC0uMTYuMTYtLjI0LDBINTMuNTRsMCwwSDUxLjNsMCwwLS4xOS0uMDcsMCwwLTMuMzgtMi45NSwwLDB2MGwtLjItLjI4VjcwLjhINDUuNzh2LS4yNGMwLTIsMC00LDAtNi4wOHYtLjI0aDUuMzFBMi4yOSwyLjI5LDAsMCwxLDUzLjM1LDY2YTIuNDgsMi40OCwwLDAsMSwuMDYuNTQsMi4zLDIuMywwLDAsMS0yLjE5LDIuMjhsLjY4LjU3aDBsMS4xOCwxLC4yLjE4LjE1LS4xOC4wOC0uMWMxLjE5LTEuODYsMi4zOC0zLjcsMy41NS01LjU4YTEuMTUsMS4xNSwwLDAsMSwxLjk1LDBjMS4xNiwxLjg3LDIuMzcsMy43MSwzLjU1LDUuNTdsLjMyLjUxWm04Ljc2LTEuMTZjLS4yMi4zNi0uNDQuNjktLjY3LDFsMCwuMDYtLjA3LDAtLjE1LjA2SDY1LjE2QTMuMjQsMy4yNCwwLDAsMSw2Miw2Ny44OGMwLS4xMSwwLS4yMiwwLS4zM2EzLjMxLDMuMzEsMCwwLDEsMi43Ny0zLjI4aDBhMy4yNiwzLjI2LDAsMCwxLC41MiwwaDQuNjFsLS4yMy4zNy0uMDcuMTFoMGMtLjE4LjI3LS4zNS41My0uNS44aDBhLjUuNSwwLDAsMS0uMjEuMjIuNjIuNjIsMCwwLDEtLjI1LjA1SDY1LjQxYTEuNzMsMS43MywwLDAsMC0xLjc2LDEuNzd2MGgwYTEuNzIsMS43MiwwLDAsMCwxLjQ5LDEuNjVoMGwuMzIsMGg0LjU4Wm0xNSwwLS4wNi4wOWgwYy0uMTguMy0uMzguNi0uNTYuODlsMCwuMDUsMCwwLS4yLjEySDgwLjIzYTMuMjMsMy4yMywwLDAsMS0yLjY1LTEuNTJsLS4xOC4zLS4wNy4xMmgwbC0uNTYuODYsMCwwLDAsMC0uMjMuMTNINzEuMmEuOTMuOTMsMCwwLDEtLjY0LS4yNC44OS44OSwwLDAsMS0uMjQtLjY0VjY0LjU3aDBsMC0uMTIsMC0uMkg3MnY1aDUuNTdhMy4yNCwzLjI0LDAsMCwxLS40Ni0xLjM0aDBhMi40NCwyLjQ0LDAsMCwxLDAtLjI3LDMuMzYsMy4zNiwwLDAsMSwyLjgtMy4zNmwwLC4yNCwwLS4yNGEzLjA5LDMuMDksMCwwLDEsLjUxLDBIODVsLS4xOS4zNi0uMDYuMTJoMGMtLjE4LjI5LS4zNi41Ny0uNTUuODVoMGwtLjE1LjE3LS4yNC4wNUg4MC40M2ExLjY5LDEuNjksMCwwLDAtMS41MiwxaDUuNzJsLS4xOS4zNi0uMDcuMTJoMGwtLjU1Ljg2aDBsLS4xNi4xOC0uMjMsMEg3OC44N2wuMDYuMWExLjY5LDEuNjksMCwwLDAsMS41Ljg2aDQuNjRaTTUxLjc0LDY2LjgyYS43NC43NCwwLDAsMCwwLS4yOS43Ni43NiwwLDAsMC0uNzMtLjc1SDQ3LjQxdjEuNDloLjUxbDMsMEEuNzkuNzksMCwwLDAsNTEuNzQsNjYuODJaIiBjbGFzcz0iY2xzLTIiLz48L3N2Zz4=;fontSize=24;" vertex="1" parent="1">
          <mxGeometry x="560" y="460" width="231.11" height="260" as="geometry" />
        </mxCell>
      </root>
    </mxGraphModel>
  </diagram>
</mxfile>
